<svg xmlns="http://www.w3.org/2000/svg" width="1240" height="1240"><path d="M346.5 245.586c-1.65.222-7.95.893-14 1.492-26.378 2.611-56.864 9.314-82.407 18.119-48.193 16.613-87.009 40.633-121.624 75.265C71.103 397.857 38.85 472.532 31.92 564c-1.319 17.411-.669 73.672 1.023 88.5 6.117 53.618 16.974 92.118 36.944 131 25.577 49.8 57.59 85.798 102.671 115.447 43.215 28.423 97.313 46.812 160.442 54.538 45.447 5.562 104.569 3.686 145.5-4.615 38.797-7.868 67.248-21.634 88.564-42.851 18.713-18.625 25.884-34.957 25.915-59.019.039-31.356-10.595-57.538-31.947-78.649l-7.23-7.148-15.651 7.791c-47.567 23.681-71.425 30.39-112.651 31.679-58.641 1.835-105.003-13.567-139.46-46.33-29.681-28.221-46.075-62.185-53.746-111.343-2.812-18.027-2.518-71.254.501-90.5 7.32-46.662 22.723-80.067 49.153-106.596 22.1-22.183 45.938-34.643 79.052-41.318 31.682-6.386 68.84-5.634 99.5 2.012 18.42 4.595 48.207 17.917 71.893 32.154l10.894 6.548 3.364-1.811c5.543-2.985 18.902-16.071 25.828-25.3 7.863-10.477 12.672-20.069 15.682-31.277 3.286-12.236 3.301-34.934.031-46.412-8.182-28.717-29.578-51.395-64.692-68.567-26.528-12.972-52.217-19.933-90.5-24.52-12.714-1.524-78.427-2.912-86.5-1.827m616 .466c-73.739 7.363-133.209 29.915-185.485 70.34-13.375 10.342-38.325 35.067-48.949 48.506-40.368 51.065-63.793 109.167-72.614 180.102-2.24 18.015-3.125 73.709-1.509 94.953 4.073 53.526 14.739 95.782 34.467 136.547 20.894 43.174 47.567 77.447 81.593 104.84 55.975 45.063 130.007 70.277 219.615 74.797 50.379 2.542 104.041-3.096 138.848-14.585 24.737-8.166 45.029-20.045 60.664-35.514 17.912-17.72 25.9-36.028 25.85-59.246-.065-30.684-10.115-55.878-30.691-76.938l-8.447-8.646-20.171 9.812c-46.039 22.395-67.959 28.402-108.171 29.647-48.76 1.51-87.612-8.397-120.694-30.776-12.057-8.155-33.304-29.354-41.003-40.908-18.101-27.165-27.916-55.571-32.3-93.477-1.937-16.745-1.951-53.584-.028-71.706 4.07-38.343 15.134-71.147 32.779-97.19 8.087-11.935 27.551-31.403 38.746-38.755 29.026-19.062 59.944-27.238 103-27.238 40.235 0 63.835 5.766 102 24.92 7.975 4.002 19.315 10.182 25.201 13.732l10.701 6.455 7.842-6.201c24.152-19.098 37.327-43.319 38.904-71.523 2.303-41.174-22.022-74.816-70.813-97.94-23.734-11.248-50.318-18.178-86.835-22.635-15.69-1.914-77.834-2.837-92.5-1.373" fill="undefined" fill-rule="evenodd"/></svg>